<svg xmlns="http://www.w3.org/2000/svg">
  <filter id="filter0_f">
    <feGaussianBlur stdDeviation="2.5" />
  </filter>
  <symbol id="soft-coral" viewBox="0 0 169 31">
      <ellipse id="left" cx="85" cy="15" rx="62.5" ry="60.5" fill="#FF7E36" filter="url(#filter0_f)" opacity="0.7"/>
  </symbol>
  <symbol id="soft-pink" viewBox="0 0 169 31">
      <ellipse id="left" cx="85" cy="15" rx="62.5" ry="60.5" fill="#FFBAA5" filter="url(#filter0_f)" opacity="0.7"/>
  </symbol>
  <symbol id="solid-coral" viewBox="0 0 169 31">
    <g id="Blush / Solid Coral" opacity="0.7">
      <ellipse id="left" cx="85" cy="15" rx="62.5" ry="60.5" fill="#FF7E36" />
    </g>
  </symbol>
  <symbol id="solid-pink" viewBox="0 0 169 31">
    <g id="Blush / Solid Pink" opacity="0.7">
      <ellipse id="left" cx="85" cy="15" rx="62.5" ry="60.5" fill="#FFBAA5" />
    </g>
  </symbol>

  <symbol id="bunny" viewBox="0 0 65 26">
    <path d="M52 4C52 7.31371 43.4934 10 33 10C22.5066 10 14 7.31371 14 4" stroke="#8C501D" stroke-width="3"
      stroke-linecap="round" />
    <path d="M27 15V10H39V15H27Z" fill="white" stroke="#8C501D" stroke-width="2" stroke-linecap="round"
      stroke-linejoin="round" />
  </symbol>

  <symbol id="mouth-cat" viewBox="0 0 65 26">
    <path
      d="M7 2C9.33333 4.66667 15.4 10 21 10C26.6 10 31 6.66667 32.5 5C34 6.66667 38.4 10 44 10C49.6 10 55.6667 4.66667 58 2"
      stroke="#8C501D" stroke-width="3" stroke-linecap="round" stroke-linejoin="round" />
  </symbol>

  <symbol id="droll" viewBox="0 0 65 26">
    <path
      d="M31.3401 4.83657C35.8401 4.83657 40.3401 3.33655 45.3401 3.33655C53.3401 5.83655 49.5068 11.6699 45.3401 12.8365C46.8401 16.8365 44.3401 20.3365 41.8401 19.3365C39.3401 18.3365 40.8401 14.3365 39.3401 12.8365C38.0653 11.5618 23.3401 14.3365 18.8401 11.8366C14.3401 9.33658 15.8401 3.83657 18.8401 2.33657C21.8401 0.836565 26.8401 4.83657 31.3401 4.83657Z"
      fill="white" fill-opacity="0.9" stroke="#8C501D" stroke-width="3" stroke-linecap="round"
      stroke-linejoin="round" />
  </symbol>

  <symbol id="kissy" viewBox="0 0 65 26">
    <path
      d="M31 4.65339C33 2.65339 35.5 2.2534 37.5 4.6534C40 7.6534 37 10.6534 34 10.1534C37.6667 11.82 37.7845 13.9767 37 15.1534C36 16.6534 33 17.1534 31 15.1534"
      stroke="#8C501D" stroke-width="2" stroke-linecap="round" stroke-linejoin="round" />
  </symbol>

  <symbol id="laugh" viewBox="0 0 65 26">
    <path d="M33 14C43.4934 14 52 8.07513 52 2C52 2 40 4 33 4C26 4 13.5 2 13.5 2C13.5 8.07513 22.5066 14 33 14Z"
      fill="white" fill-opacity="0.9" stroke="#8C501D" stroke-width="3" stroke-linecap="round"
      stroke-linejoin="round" />
  </symbol>

  <symbol id="small" viewBox="0 0 65 26">
    <path d="M45 2C45 8.07513 39.4036 13 32.5 13C25.5964 13 20 8.07513 20 2" stroke="#8C501D" stroke-width="3"
      stroke-linecap="round" />
  </symbol>

  <symbol id="surprise" viewBox="0 0 65 26">
    <ellipse cx="32.5" cy="7.5" rx="6.5" ry="7.5" fill="#8C501D" />
  </symbol>

  <symbol id="wide" viewBox="0 0 65 26">
    <path d="M52 2C52 8.07513 43.4934 13 33 13C22.5066 13 14 8.07513 14 2" stroke="#8C501D" stroke-width="3"
      stroke-linecap="round" />
  </symbol>

  <symbol id="bob" viewBox="0 0 238 174">
    <path
      d="M11.657 94.772C20 82 33.5 44.126 47 26.5c7.309-9.543 19.287-26 71.5-26 51.246 0 61.882 15.671 69.5 26 13 17.626 28.5 55.5 37.343 68.272 9.913 14.318 32.875 43.627-41.577 78.728 5.318-23.735 12.086-76.822-3.384-99.287-9.508-1.504-29.297-4.513-32.391-4.513-1.773-7.02-5.318-21.964-5.318-25.574-1.451 8.023-4.642 24.37-5.802 25.574-1.45 1.504-15.47 1.003-18.371 1.003-2.901 0-16.921.501-18.371-1.003-1.16-1.204-4.351-17.55-5.802-25.574 0 3.61-3.545 18.554-5.318 25.574-3.094 0-22.883 3.009-32.391 4.513-15.47 22.465-8.702 75.552-3.384 99.287-74.452-35.101-51.1-64.149-41.577-78.728z" />
  </symbol>

  <symbol id="brock" viewBox="0 0 196 118">
    <path
      d="M15 117.5c0-70.8 51.5-82 82.5-82h1c31 0 82.5 11.2 82.5 82-10.5 0-10 0-15-23-10.5 0-10.5 0-16-18.5-11.833-1.333-38.7-4-51.5-4h-1c-12.8 0-39.667 2.667-51.5 4-5.5 18.5-5.5 18.5-16 18.5-5 23-4.5 23-15 23z"
      opacity=".75" />
    <path
      d="M.5 60.993C2.495 81.13 9.81 97.054 16.46 102.5h11.47l1.995-7.507c5.485 0 10.473 3.091 15.959-16.337 15.294-1.178 46.78-3.533 50.37-3.533 16.791.59 50.97 2.12 53.364 3.533 4.488 12.363 5.486 17.22 15.959 16.337l1.995 7.507h11.969c6.65-5.446 13.964-21.371 15.959-41.507-4.322-1.766-14.862-5.298-22.442-5.298-.832-10.892-4.389-34.177-11.97-40.182-7.148.441-23.041 2.473-29.424 7.065C131.664 20.37 100.244.5 96.254.5c-3.191 0-22.608 14.719-31.918 22.078-6.383-4.592-22.276-6.623-29.424-7.065-7.58 6.005-11.138 29.29-11.97 40.182-7.58 0-18.12 3.532-22.442 5.298z" />
  </symbol>

  <symbol id="chill" viewBox="0 0 244 134">
    <path
      d="M146.5.5C93.7.5 76.833 27.167 75 40.5c-5.5-2.5-18.6-6-27 0C37.5 48 23 63 16.5 65c0 6.5 2.5 14 6.5 15.5S2 89 1 96.5c1.167 4.167 4.2 12.7 7 13.5 3.5 1 5.5-2 8.5-4-1.333 1.833-4.2 6.3-5 9.5-1 4 6.5 11.5 11.5 10.5 2-3.2 7.5-8.333 10-10.5 3.167 0 10.6-1.1 15-5.5-5.6-12.8 6.333-37 13-47.5-1.667 3.333-4.9 10.7-4.5 13.5.4 2.8 8.5 4.167 12.5 4.5 3.6 0 6.5-20.333 7.5-30.5 15.667 11.5 48 33.7 52 30.5 5-4 8-9 8.5-13.5s-12-5.5-15.5-9.5c10.833 2.5 33.9 6 39.5 0 19.5 9.5 35.203 35.258 37.5 41 6 15 11.5 24.667 16.5 34 3.5 5 18.5-8.5 21.5-10.5.4-2.4-9.167-15.667-14-22 3.5 1.5 3.5 3.5 6 4s11.5-5.5 14.5-7.5c1.2-8.8-10.833-23.333-17-29.5 2.5 0 5.5-6 7.5-13.5-7-8.5-32-18-29.5-18s8-8 8.5-12.5-30-22.5-66-22.5z" />
  </symbol>

  <symbol id="chipper" viewBox="0 0 199 102">
    <path
      d="M31 85.5c51.2-4 96.667-28 113-39.5 3.667 12 15.86 35.367 26 41 13.5 7.5 12 10 12 14.5 7.833-1.333 21.6-11.6 14-42-7.6-30.4-32.833-29.667-44.5-25.5.5-3.5-5-33.5-50.5-33.5-70 0-100 49-100 73 0 19.2 10 26.667 15 28 3.2-10.8 11.333-15.167 15-16z" />
  </symbol>

  <symbol id="dino" viewBox="-2 0 172 118">
    <path
      d="M1 118c0-70.8 51.5-82 82.5-82h1c31 0 82.5 11.2 82.5 82-10.5 0-10 0-15-23-10.5 0-10.5 0-16-18.5-11.833-1.333-38.7-4-51.5-4h-1c-12.8 0-39.667 2.667-51.5 4C26.5 95 26.5 95 16 95c-5 23-4.5 23-15 23z"
      opacity=".75" />
    <path
      d="M30.288 14.178C16.25 27.836 8.368 59.99 7.85 79.523c17.48-1.974 37.5-6.417 77-6.417 36.755 0 53.403 4.161 75.396 6.135-.519-19.532-8.216-50.457-22.253-64.115-3.478.474-9.626 2.94-13.799 9.01-.869-4.936-4.969-14.132-14.833-23.237-5.059.79-18.978 4.742-25.807 14.227C76.725 5.641 63.808 1.69 58.75.9c-9.864 9.105-13.366 16.89-13.366 23.238-4.173-6.07-11.618-9.485-15.096-9.96z" />
  </symbol>

  <symbol id="diva" viewBox="0 0 276 200">
    <path fill-rule="evenodd"
      d="M52.749 31.5C77.949 6.3 119.582 0 137.249 0h1c17.667 0 59.3 6.3 84.5 31.5 28.696 28.696 17.972 39.135 13.189 43.79-.467.454-.878.854-1.189 1.21-2.521 2.881 2.74 5.762 8.682 9.017 2.309 1.264 4.72 2.584 6.818 3.983 7.5 5 15 18 3.5 26.5s-9.5 12.5-6.5 14.5c.781.521 2.341.872 4.362 1.327 5.746 1.293 15.22 3.426 21.138 12.673 8 12.5-5.5 42.5-38 49.5-27.948 6.02-45.543 5.384-53.739 5.087-1.335-.048-2.421-.087-3.261-.087h-80c-.84 0-1.926.039-3.26.087-8.197.297-25.792.933-53.74-5.087-32.5-7-46-37-38-49.5 5.918-9.247 15.392-11.38 21.138-12.673 2.021-.455 3.581-.806 4.362-1.327 3-2 5-6-6.5-14.5s-4-21.5 3.5-26.5c2.098-1.399 4.51-2.72 6.817-3.983C38.01 82.262 43.27 79.38 40.75 76.5c-.312-.356-.722-.756-1.19-1.21-4.782-4.655-15.506-15.094 13.19-43.79zm152.377 121c-4.289-2.412-5.887-8.53-6.126-12.24 5 3.5 7 3.5 12.5-3.5s11-18 0-25-10.5-16.5-8-21.5c.54-1.08 1.126-2.02 1.678-2.904 2.007-3.216 3.566-5.715.822-11.596-1.37-2.937-4.887-4.417-8.51-5.942-5.628-2.368-11.511-4.844-9.99-13.058 2-10.8-8.833-19.834-14.5-23-22.4-14-33-5.833-35.5 0V34c-2.5-5.833-13.1-14-35.5 0-5.667 3.167-16.5 12.2-14.5 23 1.521 8.214-4.362 10.69-9.99 13.059C73.887 71.583 70.37 73.063 69 76c-2.745 5.88-1.185 8.38.822 11.596.552.885 1.138 1.825 1.678 2.904 2.5 5 3 14.5-8 21.5s-5.5 18 0 25 7.5 7 12.5 3.5c-.243 3.774-1.892 10.037-6.348 12.361 10.57 9.71 23.75 16.784 32.042 20.139 4.834 2 18.7 6 35.5 6s30.667-4 35.5-6c8.396-3.396 21.799-10.604 32.432-20.5z"
      clip-rule="evenodd" />
  </symbol>

  <symbol id="eggshell" viewBox="-2 0 172 86">
    <path
      d="M1 82C1 11.2 52.5 0 83.5 0S167 11.2 167 82l-3.5 3.5c-.333-3.667-3.8-19.9-9-29.5-5.2-9.6-8.5-11.667-9.5-11.5l-9 6L124.5 38 110 46.5l-14-11-12 15-12-15-14 11L43.5 38 32 50.5l-9-6c-1-.167-4.3 1.9-9.5 11.5S4.333 81.333 4 85l-3-3z" />
  </symbol>

  <symbol id="fairy" viewBox="0 0 252 154">
    <path fill-rule="evenodd"
      d="M74.274 26.005C71.959 16.74 62.144 0 39 0 9 0 1 33 1 57.5c0 13.298 7.07 19.23 14.416 25.394 5.007 4.201 10.141 8.51 13.25 15.331C32.447 95.583 37.26 94 42.5 94c.61 0 1.215.022 1.812.064l.011-.064H44c0-35.856 13.209-56.425 30.274-67.995zM55.226 148.457c-4.608-4.993-8.373-10.55-10.476-16.555-.74.065-1.49.098-2.25.098-9.798 0-18.1-5.532-20.947-13.176-7.06 5.889-15.571 4.672-20.553 3.676 6.579 15.404 26.35 41.188 54.226 25.957zM178.03 24.892C180.824 15.464 190.755 0 213 0c30 0 38 33 38 57.5 0 13.298-7.071 19.23-14.416 25.394-4.763 3.997-9.641 8.09-12.782 14.352C220.29 95.196 216.057 94 211.5 94c-.487 0-.971.014-1.45.04l-.05-.298c-.066-36.873-14.133-57.53-31.97-68.85zm20.348 124.401c27.03 13.404 46.17-11.686 52.622-26.793-4.628.926-12.303 2.042-19.029-2.527C228.752 127.017 220.8 132 211.5 132c-.631 0-1.255-.023-1.872-.068-2.224 6.331-6.293 12.163-11.25 17.361z"
      clip-rule="evenodd" />
    <path
      d="M43 94c37.2-.4 74.333-29.5 87.5-44-.5 6.667-3.6 20.8-12 24 10.167 1.167 32.3-.3 39.5-15.5 6.5 9.5 26 29.9 52 35.5 0-44-21-87.5-83-87.5C69 6.5 43 41 43 94z" />
  </symbol>

  <symbol id="kindergarten" viewBox="0 0 270 122">
    <path fill-rule="evenodd"
      d="M177.16 20.4C174.728 11.36 164.865 1 137.5 1 92 1 67 24 58 34.5c-2.656 3.099-6.444 8.722-10.747 15.111C36.973 64.873 23.753 84.5 16 84.5c-6 0-9.5-.5-15-3C3.167 93 11.7 117 28.5 121c.593.141 1.173.275 1.739.401a16.604 16.604 0 01-.739-4.901c0-10.493 9.85-19 22-19 .61 0 1.215.022 1.812.064l.012-.067c.058.002.117.003.176.003 16.4 0 24.833-26.333 27-39.5.833 4 11.6 14.8 46 14 21.969-.51 35.726-12.944 43.538-25.293C173.784 55.536 185.965 62 199 62c.833 11.833 6 35.5 20 35.5h.043a.58.58 0 01.007.04c.479-.026.963-.04 1.45-.04 12.15 0 22 8.507 22 19 0 1.544-.213 3.045-.616 4.482 16.751-4.053 25.262-27.999 27.426-39.482-5.5 2.5-9 3-15 3-7.236 0-16.418-16.01-24.417-29.955h-.001C225.731 47.29 221.89 40.593 218.81 37c-4.589-6.313-25.275-26.767-41.65-16.6z"
      clip-rule="evenodd" />
  </symbol>

  <symbol id="leafy" viewBox="-2 0 172 82">
    <path
      d="M1 82C1 11.2 52.5 0 83.5 0S167 11.2 167 82c-7.684 0-14.838-13.667-18.171-22.631.733 3.627-.157 8.345-.829 10.631-22 0-37.167-25.667-42-38.5C102.667 41.333 90.9 61 70.5 61c-.833-4.5-2-14.5 0-18.5-11 9.167-37.2 27.5-54 27.5-1.167 4.333-5.9 12-15.5 12z" />
  </symbol>

  <symbol id="nomessbun" viewBox="-2 0 172 116">
    <path fill-rule="evenodd"
      d="M108.105 32.445C110.268 29.352 111.5 25.79 111.5 22c0-11.874-12.088-21.5-27-21.5s-27 9.626-27 21.5c0 3.648 1.141 7.085 3.155 10.095C13.215 41.513 1 80.988 1 115.5l4.5-.5c1.087-1.087 2.804-14.848 3.737-23.498-.12 5.008 1.5 12.262 2.763 10.998 1.2-1.2 11.167-4.5 16-6 1.527-2.29 2.763-14.787 3.04-19.23.504 3.77 3.71 12.708 5.46 17.23 3.2-1.2 18.333-2.833 25.5-3.5.8-1.2 3.333-17.167 4.5-25 1.2 2.4 3.5 17.667 4.5 25 .553 0 1.867-.068 3.526-.154C77.369 90.7 81.223 90.5 84 90.5c2.628 0 6.22.178 9.112.322 1.95.097 3.583.178 4.388.178 1-7.333 3.3-22.6 4.5-25 1.167 7.833 3.7 23.8 4.5 25 7.167.667 22.3 2.3 25.5 3.5 1.75-4.522 4.956-13.46 5.461-17.23.276 4.443 1.512 16.94 3.039 19.23 4.833 1.5 14.8 4.8 16 6 1.264 1.264 2.882-5.99 2.763-10.998.933 8.65 2.65 22.411 3.737 23.498l4.5.5c0-34.1-13.042-73.045-59.395-83.055zM31 76c-.05.3-.033.732.04 1.27.085-1.375.078-1.98-.04-1.27zM9.237 91.502c.097-.895.185-1.736.263-2.502-.158.709-.24 1.566-.263 2.502z"
      clip-rule="evenodd" />
  </symbol>

  <symbol id="princess" viewBox="0 0 249 276">
    <path fill-rule="evenodd"
      d="M18.493 104.975C14.488 111.812 11.301 117.253 10 120c-4.5 9.5-14 32-7 50.5 3.63 9.596 9.548 13.945 14.404 17.514 4.505 3.311 8.096 5.951 8.096 11.486 0 4.748-3.666 10.094-7.547 15.754-5.52 8.048-11.476 16.733-7.953 25.246 4.8 11.6 22 19.167 30 21.5-1-2.333-2.4-8.9 0-16.5 3.5 9.833 14.5 29.7 30.5 30.5-2.174-8.09-5.449-23.247-5.72-34.484 2.904 2.251 6.088 4.014 9.22 4.484-1.167-3-2.8-10.3 0-15.5 9.666 3.667 32.5 11.1 46.5 11.5l4-11.5 4 11.5c14-.4 36.833-7.833 46.5-11.5 2.8 5.2 1.167 12.5 0 15.5 3.132-.47 6.316-2.233 9.22-4.484-.271 11.237-3.547 26.394-5.72 34.484 16-.8 27-20.667 30.5-30.5 2.4 7.6 1 14.167 0 16.5 8-2.333 25.2-9.9 30-21.5 3.522-8.513-2.434-17.198-7.953-25.246-1.3-1.895-2.575-3.755-3.697-5.569L223.5 199.5c0-5.535 3.591-8.175 8.096-11.486.626-.46 1.27-.934 1.924-1.429 4.42-3.349 9.317-7.727 12.48-16.085 7-18.5-2.5-41-7-50.5s-17-38-30.5-71.5c-11.91-29.555-22-47.5-87-47.5-.872 0-1.984-.04-3.298-.09C102.945.35 60.35-1.216 47 48.5c-3.871 14.417-18.661 39.666-28.507 56.475zm154.572 64.814c.64-4.684 2.193-9.341 5.435-14.289 3.111-4.749 6.598-8.533 9.811-12.019 6.595-7.157 12.034-13.058 10.689-23.481-13.2-14.8-27.5-55.5-33-74-3.6 5.2-1.5 18.5 0 24.5-10 0-24.5-12.333-30.5-18.5.8 5.6 6 14.667 8.5 18.5-34 1.2-44.5-22.833-45.5-35C86 64 78.5 80 60 78c0 5.757-2.192 12.748-4.568 20.325-2.163 6.9-4.479 14.288-5.432 21.675-1.333 10.328 4.216 16.216 10.878 23.285 3.337 3.54 6.952 7.377 10.122 12.215 3.657 5.581 5.091 10.792 5.472 16.089 4.175 2.306 8.055 4.13 11.222 5.411 4.834 2 18.7 6 35.5 6s30.667-4 35.5-6c3.951-1.598 9.012-4.041 14.371-7.211z"
      clip-rule="evenodd" />
  </symbol>

  <symbol id="shaggy" viewBox="0 0 190 98">
    <path d="M175.155 48.422A3.85 3.85 0 00174.5 48c.178.127.399.27.655.422z" />
    <path
      d="M72.5 68C76.9 65.6 82 55.667 84 51c2.5 5.667 8.5 17 12.5 17s9.5-12.6 9.5-17c2 4.667 7.1 14.6 11.5 17 3-2.5 9.4-8.2 11-11 1.5 4.667 5 14.3 7 15.5 2.833-1.333 9-4.7 11-7.5 1.5 4.333 5.5 13.7 9.5 16.5 2-.833 6.5-3 8.5-5 0 5 .6 15.6 3 18 1.833-.667 5.8-2.3 7-3.5.833 1.667 2.7 5.2 3.5 6 1 1 7.5-6.5 2-24.5 1.667 1.667 5.8 5.2 9 6-2-3.667-6.1-11.5-6.5-13.5-.472-2.362-3.624-13.654-7.345-16.578A9.293 9.293 0 01174.5 48c.22.11.439.252.655.422 1.43.843 3.971 1.917 6.345 1.578-2.5-2.833-7.7-9.1-8.5-11.5-1-3-10.5-18-17-18 1.5-.167 4.9-1.1 6.5-3.5-6.5-.167-20.4-1.2-24-4C134 9.5 114 5.5 106 6c-.833 0-2.9-.5-4.5-2.5 0 1.2-1.667 2.167-2.5 2.5 0-2.4-2.667-5-4-6-2 1.2-3.5 4.167-4 5.5-1.2-.4-2.167-1.5-2.5-2C86.9 5.5 84.833 6 84 6c-8-.5-28 3.5-32.5 7-3.6 2.8-17.5 3.833-24 4 1.6 2.4 5 3.333 6.5 3.5-6.5 0-16 15-17 18-.8 2.4-6 8.667-8.5 11.5 2.374.34 4.915-.735 6.345-1.578.216-.17.435-.312.655-.422-.178.127-.399.27-.655.422C11.124 51.346 7.972 62.638 7.5 65 7.1 67 3 74.833 1 78.5c3.2-.8 7.333-4.333 9-6-5.5 18 1 25.5 2 24.5.8-.8 2.667-4.333 3.5-6 1.2 1.2 5.167 2.833 7 3.5 2.4-2.4 3-13 3-18 2 2 6.5 4.167 8.5 5 4-2.8 8-12.167 9.5-16.5 2 2.8 8.167 6.167 11 7.5 2-1.2 5.5-10.833 7-15.5 1.6 2.8 8 8.5 11 11z" />
  </symbol>

  <symbol id="smooth" viewBox="-2 0 172 82">
    <path
      d="M1 82C1 11.2 52.5 0 83.5 0h1c31 0 82.5 11.2 82.5 82-10.5 0-10 0-15-23-10.5 0-10.5 0-16-18.5-11.833-1.333-38.7-4-51.5-4h-1c-12.8 0-39.667 2.667-51.5 4C26.5 59 26.5 59 16 59c-5 23-4.5 23-15 23z"
      opacity=".75" />
  </symbol>

  <symbol id="somemessbun" viewBox="0 0 186 204">
    <path fill-rule="evenodd"
      d="M118.484 29.666c1.3-2.518 2.016-5.275 2.016-8.166 0-11.874-12.088-21.5-27-21.5-14.911 0-27 9.626-27 21.5 0 2.805.675 5.485 1.902 7.942C27.858 39.876 10 76.545 10 115c-1 .333-4 4.8-8 20-3.274 12.44 4.17 23.38 10.402 32.539 3.286 4.829 6.235 9.163 7.098 12.961 2 8.8-2.166 18.333-4.5 22-1.333.667-2.8 1.6 2 0 6-2 17-8 16-25.5-.54-9.456-4-15.408-7.303-21.091-2.81-4.834-5.507-9.474-6.197-15.909-1.2-11.2 6.5-31.667 10.5-40.5 22 0 34.5-28.667 38-43 0 26 59 39.5 88.5 43 4 8.833 11.7 29.3 10.5 40.5-.689 6.435-3.386 11.075-6.196 15.909-3.303 5.683-6.763 11.635-7.304 21.091-1 17.5 10 23.5 16 25.5 4.8 1.6 3.334.667 2 0-2.333-3.667-6.5-13.2-4.5-22 .863-3.798 3.812-8.132 7.098-12.961C180.33 158.38 187.774 147.44 184.5 135c-4-15.2-7-19.667-8-20 0-38.185-17.959-74.608-58.016-85.334z"
      clip-rule="evenodd" />
  </symbol>

  <symbol id="straightup" viewBox="0 0 236 232">
    <path fill-rule="evenodd"
      d="M67.5 38.5c0 6.833.8 21.1 4 23.5 3.2 2.4 32 7 47 7s42.971-4.6 46.171-7c3.2-2.4 4-16.667 4-23.5 8.271 24.025 19.508 67.269 22.784 110.515-11.074 12.718-27.884 21.99-37.761 25.985-4.833 2-18.7 6-35.5 6s-30.666-4-35.5-6c-9.937-4.019-26.89-13.379-37.96-26.216C48.03 105.615 59.243 62.482 67.5 38.5zM52.599 231.432l.072.194C39.947 231.251 12.4 223.6 4 196-6.5 161.5 9.864 40.233 50 16 76.5 0 90.5 0 118 0s41.5 0 68 16c40.136 24.233 56.671 145.5 46.171 180-8.4 27.6-35.947 35.251-48.671 35.626.057-.154.115-.309.171-.464l-.171.338c-9.5-6.5-33.8-20-65-20-31.092 0-56.325 13.407-65.901 19.932z"
      clip-rule="evenodd" />
  </symbol>

  <symbol id="twinbraids" viewBox="0 0 247 198">
    <path
      d="M122 63c-55 0-54-1-54-30.5-1.167 11.833 0 43-16.5 38L39 90C39 55 50 .5 122 .5S205.5 55 205.5 90L193 70.5c-16.5 4-15.333-26.167-16.5-38C176.5 62 177 63 122 63z" />
    <path fill-rule="evenodd"
      d="M31.104 126.685a15.313 15.313 0 00-2.802 6.121c-.983 4.611.191 9.144 2.811 12.411-5.056.1-10.026 3.131-12.595 8.235-2.855 5.675-1.885 12.206 1.963 16.338-7.44-.924-16.113 6.982-19.981 11.71 3.5 6.5 5 9 11 12.5 3.909 2.28 12.667 3.333 17 3 2.19-5.692 4.762-16.753-1.349-23.444 5.96 1.251 12.426-1.888 15.485-7.967 2.672-5.308 1.994-11.367-1.254-15.508 6.228-.128 11.878-4.854 13.326-11.642 1.194-5.595-.79-11.076-4.68-14.318-3.555 2.13-7.873 3.379-12.528 3.379a25.24 25.24 0 01-6.396-.815zm164.37-1.74c-3.523 3.287-5.265 8.508-4.129 13.832 1.448 6.788 7.098 11.515 13.326 11.642-3.248 4.142-3.925 10.2-1.254 15.509 3.059 6.078 9.524 9.217 15.485 7.967-6.111 6.69-3.538 17.751-1.349 23.443 4.334.334 13.091-.719 17-3 6-3.5 7.5-6 11-12.5-3.868-4.728-12.54-12.634-19.98-11.71 3.847-4.132 4.818-10.663 1.962-16.337-2.568-5.104-7.539-8.136-12.595-8.236 2.62-3.267 3.794-7.8 2.811-12.41a15.248 15.248 0 00-3.424-6.883 25.04 25.04 0 01-7.827 1.238c-4.018 0-7.784-.93-11.026-2.555z"
      clip-rule="evenodd" />
  </symbol>

  <symbol id="undercut" viewBox="-2 0 172 98">
    <path
      d="M1 98c0-70.8 51.5-82 82.5-82h1c31 0 82.5 11.2 82.5 82-10.5 0-10 0-15-23-10.5 0-10.5 0-16-18.5-11.833-1.333-38.7-4-51.5-4h-1c-12.8 0-39.667 2.667-51.5 4C26.5 75 26.5 75 16 75c-5 23-4.5 23-15 23z"
      opacity=".75" />
    <path
      d="M9 56C3.833 53-3.4 42.8 9 26 24.126 5.507 69.727.25 84 .009A59.22 59.22 0 0083 0h2c-.314 0-.647.003-1 .009C98.273.25 143.874 5.507 159 26c12.4 16.8 5.167 27 0 30-3 6.667-10.6 19.9-17 19.5-4.5-2.667-14.2-9.4-17-15-2.833 3.333-10.1 10.5-16.5 12.5-3.667-2.667-11.4-8.9-13-12.5-2.167 4.333-7.3 13-10.5 13s-9.667-8.667-12.5-13c-1.6 3.6-9.333 9.833-13 12.5-6.4-2-13.667-9.167-16.5-12.5-2.8 5.6-12.5 12.333-17 15-6.4.4-14-12.833-17-19.5z" />
  </symbol>

  <symbol id="uptop" viewBox="0 0 184 114">
    <path
      d="M9 113.5c0-70.8 51.5-82 82.5-82h1c31 0 82.5 11.2 82.5 82-10.5 0-10 0-15-23-10.5 0-10.5 0-16-18.5-11.833-1.333-38.7-4-51.5-4h-1c-12.8 0-39.667 2.667-51.5 4-5.5 18.5-5.5 18.5-16 18.5-5 23-4.5 23-15 23z"
      opacity=".75" />
    <path
      d="M5.164 47.721c6.023 6.126 8.198 23.823 9.537 29.779C31.934 74.239 67.907 69.417 92 69.417c24.093 0 60.066 4.822 77.299 8.083 1.339-5.956 2.867-24.365 9.537-29.779C186.5 41.5 183 40 177.832 35.384c-5.323-4.755-10.541-8.934-15.058 3.403-.502-.992-.479-3.043.726-6.787 1.506-4.68 9.5-7.5-2.232-13.633-12.706-6.642-11.258-2.674-13.768 4.133-1.506 1.702-3.398 6.928-5.808 6.928.168-1.418 1.505-4.935 2.308-7.657 1.004-3.404 7-9.271-2.308-14.271-10.888-5.85-8.692-4-16.062 14.27-.502-1.56-1.13-4.77-1.13-8.27 0-5.768 6.245-11.375-8.407-11.724-11.593-.276-12.046.724-12.046 8.934 0 6.178-.67 8.792-1.506 9.36-.502-.852-1.93-3.403-1.541-6.808C102 4.5 104.738.5 93.004.5 80.455.5 83.5 5 83.5 10.71c0 2.514-.87 7.232-2.04 9.36-.837-.568-2.31-3.234-1.507-9.36C80.957 3.052 82.501.444 67.907 1.776 54.5 3 60 6.5 59.5 13.262c-.233 3.158-.628 6.949-1.13 8.509C53.35 1.776 52.5 1.776 40.802 7.732 29.417 13.528 38.996 20.097 40 23.5c.803 2.723 2.14 4.51 2.308 5.928-2.41 0-5.302-4.226-6.808-5.928-2.51-6.807-2.536-10.265-12.768-5.133C12.5 23.5 17.494 26.82 19 31.5c1.205 3.744 2.728 6.295 2.226 7.287-4.517-12.337-9.035-7.232-15.058-3.403s-8.533 4.68-1.004 12.337z" />
  </symbol>



  <g fill="currentColor">
    <symbol id="nose-circle" viewBox="0 0 33 33">
      <circle cx="17" cy="16" r="7" />
    </symbol>
    <symbol id="nose-oval" viewBox="0 0 33 33">
      <ellipse cx="17" cy="16.5" rx="9" ry="5.5" />
    </symbol>
    <symbol id="rectangle" viewBox="0 0 33 33">
      <rect x="8" y="12" width="17" height="8" rx="1" />
    </symbol>
    <symbol id="triangle" viewBox="0 0 33 33">
      <path d="M17 3L25.6603 25.5H8.33975L17 3Z" />
    </symbol>
  </g>

  <g stroke="currentColor">
    <symbol id="zzzlashes" viewBox="0 0 134 65">
      <path fill="none" stroke-linecap="round" stroke-width="4"
        d="M15.71 26.366c1.766 2.523 7.531 7.372 16.467 6.59s13.334-6.52 14.415-9.292m39.816 0c1.3 2.791 6.136 8.568 15.072 9.35 8.936.781 14.263-4.106 15.81-6.648" />
      <path fill="none" stroke-linecap="round" stroke-width="3"
        d="M31.5 40.5v-7m11.951 4.281l-3.5-6.062m-21 7.562l3.5-6.062M102 40.5v-7m-11.951 4.281l3.5-6.062m21 7.562l-3.5-6.062" />
    </symbol>
    <symbol id="eyes-oval" viewBox="0 0 134 65">
      <path fill="#fff" stroke-width="2"
        d="M124 29c0 12.262-8.836 22-19.5 22C93.835 51 85 41.262 85 29s8.835-22 19.5-22c10.664 0 19.5 9.738 19.5 22z" />
      <ellipse cx="110" cy="28" rx="15" ry="17" />
      <path fill="#fff" stroke-width="2"
        d="M48 29c0 12.262-8.836 22-19.5 22C17.835 51 9 41.262 9 29S17.835 7 28.5 7C39.164 7 48 16.738 48 29z" />
      <ellipse cx="34" cy="28" rx="15" ry="17" />
    </symbol>
    <symbol id="ovaltoplash" viewBox="0 0 134 65">
      <path fill="#fff" stroke-width="2"
        d="M48 29c0 12.262-8.836 22-19.5 22C17.835 51 9 41.262 9 29S17.835 7 28.5 7C39.164 7 48 16.738 48 29z" />
      <ellipse cx="34" cy="28" rx="15" ry="17" />
      <path fill="none" stroke-linecap="round" stroke-width="2"
        d="M28 6V1m11.634 8.696l2.5-4.33m-24.268 4.33l-2.5-4.33" />
      <path fill="#fff" stroke-width="2"
        d="M124 29c0 12.262-8.836 22-19.5 22C93.835 51 85 41.262 85 29s8.835-22 19.5-22c10.664 0 19.5 9.738 19.5 22z" />
      <ellipse cx="110" cy="28" rx="15" ry="17" />
      <path fill="none" stroke-linecap="round" stroke-width="2"
        d="M104 6V1m11.634 8.696l2.5-4.33m-24.268 4.33l-2.5-4.33" />
    </symbol>
    <symbol id="ovalbottomlash" viewBox="0 0 134 65">
      <path fill="#fff" stroke-width="2"
        d="M48 29c0-12.262-8.836-22-19.5-22C17.835 7 9 16.738 9 29s8.835 22 19.5 22C39.164 51 48 41.262 48 29z" />
      <ellipse rx="15" ry="17" transform="matrix(1 0 0 -1 34 29)" />
      <path fill="none" stroke-linecap="round" stroke-width="2"
        d="M28 52v5m11.634-8.696l2.5 4.33m-24.268-4.33l-2.5 4.33" />
      <path fill="#fff" stroke-width="2"
        d="M124 29c0-12.262-8.836-22-19.5-22C93.835 7 85 16.738 85 29s8.835 22 19.5 22c10.664 0 19.5-9.738 19.5-22z" />
      <ellipse rx="15" ry="17" transform="matrix(1 0 0 -1 110 29)" />
      <path fill="none" stroke-linecap="round" stroke-width="2"
        d="M104 52v5m11.634-8.696l2.5 4.33m-24.268-4.33l-2.5 4.33" />
    </symbol>
    <symbol id="eyes-circle" viewBox="0 0 134 65">
      <circle cx="104.5" cy="29.5" r="19.5" fill="#fff" stroke-width="2" />
      <circle cx="110" cy="29" r="15" />
      <circle cx="28.5" cy="29.5" r="19.5" fill="#fff" stroke-width="2" />
      <circle cx="34" cy="29" r="15" />
    </symbol>
    <symbol id="circletoplash" viewBox="0 0 134 65">
      <circle cx="104.5" cy="29.5" r="19.5" fill="#fff" stroke-width="2" />
      <circle cx="110" cy="29" r="15" />
      <path fill="none" stroke-linecap="round" stroke-width="2"
        d="M104 9V4m11.634 8.294l2.5-4.33m-24.768 4.33l-2.5-4.33" />
      <circle cx="28.5" cy="29.5" r="19.5" fill="#fff" stroke-width="2" />
      <circle cx="34" cy="29" r="15" />
      <path fill="none" stroke-linecap="round" stroke-width="2"
        d="M28 9V4m11.634 8.294l2.5-4.33m-24.768 4.33l-2.5-4.33" />
    </symbol>
    <symbol id="circlebottomlash" viewBox="0 0 134 65">
      <circle r="19.5" fill="#fff" stroke-width="2" transform="matrix(1 0 0 -1 104.5 29.5)" />
      <circle r="15" transform="matrix(1 0 0 -1 110 29)" />
      <path fill="none" stroke-linecap="round" stroke-width="2"
        d="M104 50v5m11.634-8.294l2.5 4.33m-24.768-4.33l-2.5 4.33" />
      <circle r="19.5" fill="#fff" stroke-width="2" transform="matrix(1 0 0 -1 28.5 29.5)" />
      <circle r="15" transform="matrix(1 0 0 -1 34 29)" />
      <path fill="none" stroke-linecap="round" stroke-width="2"
        d="M28 50v5m11.634-8.294l2.5 4.33m-24.768-4.33l-2.5 4.33" />
    </symbol>
    <symbol id="smilinglash" viewBox="0 0 134 65">
      <path fill="none" stroke-linecap="round" stroke-width="4"
        d="M15.71 32.634c1.766-2.523 7.531-7.372 16.467-6.59s13.334 6.52 14.416 9.292m39.815 0c1.3-2.791 6.136-8.568 15.072-9.35 8.936-.781 14.263 4.106 15.81 6.648" />
      <path fill="none" stroke-linecap="round" stroke-width="3"
        d="M31.5 18.5v7m11.951-4.281l-3.5 6.062m-21-7.562l3.5 6.062M102 18.5v7m-11.951-4.281l3.5 6.062m21-7.562l-3.5 6.062" />
    </symbol>
    <symbol id="smiling" viewBox="0 0 134 65">
      <path fill="none" stroke-linecap="round" stroke-width="4"
        d="M15.71 32.634c1.766-2.523 7.531-7.372 16.467-6.59s13.334 6.52 14.415 9.292m39.815 0c1.301-2.791 6.137-8.568 15.073-9.35 8.936-.781 14.263 4.106 15.81 6.648" />
    </symbol>
    <symbol id="zzz" viewBox="0 0 134 65">
      <path fill="none" stroke-linecap="round" stroke-width="4"
        d="M15.71 26.366c1.766 2.523 7.531 7.372 16.467 6.59s13.334-6.52 14.415-9.292m39.816 0c1.3 2.791 6.136 8.568 15.072 9.35 8.936.781 14.263-4.106 15.81-6.648" />
    </symbol>
    <symbol id="lookatme" viewBox="0 0 134 65">
      <circle cx="31" cy="29" r="17" fill="#fff" stroke-width="2" />
      <circle cx="102" cy="29" r="17" fill="#fff" stroke-width="2" />
      <circle cx="33" cy="28" r="11" />
      <circle cx="100" cy="28" r="11" />
    </symbol>
    <symbol id="lookatmetoplash" viewBox="0 0 134 65">
      <circle cx="31" cy="29" r="17" fill="#fff" stroke-width="2" />
      <path fill="none" stroke-linecap="round" stroke-width="2"
        d="M31 11V6m10.634 9.696l2.5-4.33m-24.268 4.33l-2.5-4.33M102 11V6m10.634 9.696l2.5-4.33m-24.268 4.33l-2.5-4.33" />
      <circle cx="102" cy="29" r="17" fill="#fff" stroke-width="2" />
      <circle cx="33" cy="28" r="11" />
      <circle cx="100" cy="28" r="11" />
    </symbol>
    <symbol id="lookatmebottomlash" viewBox="0 0 134 65">
      <circle r="17" fill="#fff" stroke-width="2" transform="matrix(1 0 0 -1 31 29)" />
      <path fill="none" stroke-linecap="round" stroke-width="2"
        d="M31 47v5m10.634-9.696l2.5 4.33m-24.268-4.33l-2.5 4.33M102 47v5m10.634-9.696l2.5 4.33m-24.268-4.33l-2.5 4.33" />
      <circle r="17" fill="#fff" stroke-width="2" transform="matrix(1 0 0 -1 102 29)" />
      <circle cx="33" cy="28" r="11" />
      <circle cx="100" cy="28" r="11" />
    </symbol>
    <symbol id="sleepy" viewBox="0 0 134 65">
      <mask id="a" width="44" height="39" x="83" y="10" maskUnits="userSpaceOnUse">
        <ellipse cx="105" cy="29.5" fill="#fff" rx="22" ry="19.5" />
      </mask>
      <g mask="url(#a)">
        <path fill="#fff" stroke-width="2"
          d="M126 29.5c0 10.107-9.285 18.5-21 18.5s-21-8.393-21-18.5S93.285 11 105 11s21 8.393 21 18.5z" />
        <ellipse cx="110.5" cy="28" rx="17.5" ry="18" />
        <path fill="#FFAFA4" d="M91.604.725l42.435 17.125-7.138 17.687-42.435-17.125z" />
      </g>
      <mask id="b" width="44" height="39" x="7" y="10" maskUnits="userSpaceOnUse">
        <ellipse cx="29" cy="29.5" fill="#fff" rx="22" ry="19.5" />
      </mask>
      <g mask="url(#b)">
        <path fill="#fff" stroke-width="2"
          d="M50 29.5C50 39.607 40.715 48 29 48S8 39.607 8 29.5 17.285 11 29 11s21 8.393 21 18.5z" />
        <ellipse cx="34.5" cy="28" rx="17.5" ry="18" />
        <path fill="#FFAFA4" d="M0 17.851L42.434.724l7.139 17.686L7.139 35.538z" />
      </g>
    </symbol>
    <symbol id="dreamy" viewBox="0 0 134 65">
      <path fill-rule="evenodd"
        d="M41.862 16.213c.144.529-.13 1.086-.611 1.245l-27.347 9.004-.014.004c-1.23.36-3.145.616-4.899.157-.887-.233-1.773-.658-2.499-1.39-.736-.74-1.261-1.751-1.477-3.054-.09-.543.238-1.064.733-1.163.495-.099.97.262 1.06.805.148.897.488 1.508.917 1.94.438.441 1.016.74 1.689.916 1.361.357 2.946.165 3.994-.14l27.32-8.995c.481-.159.99.142 1.134.67z"
        clip-rule="evenodd" />
      <path
        d="M27.322 50C37.638 50 46 40.822 46 29.5c0-4.858-1.54-9.321-4.112-12.834-.056.363-.294.679-.637.792l-27.347 9.004-.014.004c-1.23.36-3.145.616-4.899.157a7.119 7.119 0 01-.158-.044c-.124.954-.188 1.93-.188 2.921 0 11.322 8.362 20.5 18.677 20.5z" />
      <path fill="#fff" fill-rule="evenodd"
        d="M13.65 26.533a5 5 0 106.4-2.094l-6.146 2.023-.013.004a9.185 9.185 0 01-.24.067z" clip-rule="evenodd" />
      <path fill="#FFAFA4"
        d="M9.18 24.61C11.177 15.649 18.542 9 27.322 9c5.383 0 10.235 2.5 13.644 6.5a.838.838 0 00-.24.042l-27.32 8.996c-1.047.304-2.632.495-3.993.14a4.94 4.94 0 01-.235-.068z" />
      <path fill-rule="evenodd"
        d="M92.138 16.213c-.144.529.13 1.086.611 1.245l27.347 9.004.014.004c1.23.36 3.145.616 4.899.157.887-.233 1.773-.658 2.499-1.39.736-.74 1.262-1.751 1.477-3.054.09-.543-.238-1.064-.733-1.163-.495-.099-.969.262-1.059.805-.149.897-.489 1.508-.917 1.94-.439.441-1.017.74-1.69.916-1.361.357-2.946.165-3.994-.14l-27.319-8.995c-.482-.159-.99.142-1.135.67z"
        clip-rule="evenodd" />
      <path
        d="M106.678 50C96.362 50 88 40.822 88 29.5c0-4.858 1.54-9.321 4.113-12.834.055.363.293.679.636.792l27.347 9.004.014.004c1.23.36 3.145.616 4.899.157l.159-.044c.124.954.188 1.93.188 2.921 0 11.322-8.363 20.5-18.678 20.5z" />
      <path fill="#FFAFA4"
        d="M124.821 24.61C122.823 15.649 115.458 9 106.678 9c-5.384 0-10.235 2.5-13.644 6.5.08.002.16.016.24.042l27.319 8.996c1.047.304 2.632.495 3.993.14.08-.022.158-.044.235-.068z" />
      <circle cx="98" cy="29" r="5" fill="#fff" />
    </symbol>
    <symbol id="sparkly" viewBox="0 0 134 65">
      <ellipse cx="29.5" cy="29.5" rx="14.5" ry="19.5" />
      <ellipse cx="105.5" cy="29.5" rx="14.5" ry="19.5" />
      <circle cx="25.5" cy="21.5" r="5.5" fill="#fff" />
      <circle cx="101.5" cy="21.5" r="5.5" fill="#fff" />
      <ellipse cx="35.5" cy="37" fill="#fff" rx="2.5" ry="3" />
      <ellipse cx="111.5" cy="37" fill="#fff" rx="2.5" ry="3" />
      <path fill="none" stroke-linecap="round" stroke-width="2"
        d="M14 13c0 .667.7 3.2 1.5 4 1 1 2.5 1.5 4 1M90 13c0 .667.7 3.2 1.5 4 1 1 2.5 1.5 4 1" />
    </symbol>
    <symbol id="kind" viewBox="0 0 134 65">
      <path fill="#fff" stroke-width="2"
        d="M90.172 25.397h0l.003-.01c3.05-9.435 13.394-14.587 23.139-11.437 9.746 3.15 15.117 13.382 12.067 22.818l-.008.026-.007.026c-.738 2.79-2.517 5.966-5.842 8.288-3.317 2.317-8.261 3.847-15.443 3.192-3.322-.302-7.488-1.131-10.974-2.193-1.743-.531-3.286-1.112-4.455-1.7-.584-.293-1.054-.577-1.401-.844-.359-.275-.528-.486-.593-.613-.07-.137-.15-.423-.183-.914a11.458 11.458 0 01.048-1.754c.126-1.379.43-3.07.832-4.868.804-3.591 1.98-7.51 2.817-10.017zm-46.146 0h0l-.004-.01c-3.05-9.435-13.394-14.587-23.14-11.437C11.138 17.1 5.767 27.332 8.817 36.769l.008.026.007.026c.738 2.79 2.517 5.966 5.842 8.288 3.317 2.317 8.261 3.847 15.443 3.192 3.322-.302 7.489-1.131 10.974-2.193 1.743-.531 3.286-1.112 4.455-1.7.585-.293 1.054-.577 1.401-.844.36-.275.528-.486.593-.613.07-.137.15-.423.183-.914a11.47 11.47 0 00-.047-1.754c-.127-1.379-.43-3.07-.833-4.868-.804-3.591-1.98-7.51-2.816-10.017z" />
      <path fill-rule="evenodd"
        d="M111.512 12.44C103.796 14.144 98 21.386 98 30.06c0 9.851 7.473 17.854 16.744 17.999 9.568-3.534 12.36-10.619 12.396-15.81.585-9.585-6.229-17.954-15.628-19.809zm-78.819.515c5.655 1.807 10.348 6.146 12.281 12.125 1.689 5.06 4.743 15.808 3.456 18.326-.86 1.68-5.663 3.465-10.781 4.651C28.422 47.859 21 39.877 21 30.061c0-7.98 4.903-14.745 11.693-17.106z"
        clip-rule="evenodd" />
    </symbol>
    <symbol id="sideeye" viewBox="0 0 134 65">
      <path fill="#000" fill-rule="evenodd"
        d="M33 44c7.18 0 13-5.82 13-13 0-1.01-.115-1.992-.333-2.936C42.331 25.066 35.841 21 27.797 21c-1.155 0-2.284.084-3.38.236A12.97 12.97 0 0020 31c0 7.18 5.82 13 13 13z"
        clip-rule="evenodd" />
      <path fill="none" stroke-linecap="round" stroke-width="4" d="M7 29c2.773-3 10.814-9 20.797-9S45.425 26 48 29" />
      <path fill="#000" fill-rule="evenodd"
        d="M112 44c7.18 0 13-5.82 13-13 0-1.01-.115-1.992-.333-2.936-3.336-2.998-9.826-7.064-17.87-7.064-1.155 0-2.284.084-3.38.236A12.969 12.969 0 0099 31c0 7.18 5.82 13 13 13z"
        clip-rule="evenodd" />
      <path fill="none" stroke-linecap="round" stroke-width="4"
        d="M86 29c2.773-3 10.814-9 20.797-9s17.628 6 20.203 9M6.5 29c-1-.167-3.1-1.2-3.5-4m124 4c1-.167 3.1-1.2 3.5-4" />
    </symbol>
    <symbol id="kindlash" viewBox="0 0 134 65">
      <path fill="#fff" stroke-width="2"
        d="M90.172 25.397h0l.003-.01c3.05-9.435 13.394-14.587 23.139-11.437 9.746 3.15 15.117 13.382 12.067 22.818l-.008.026-.007.026c-.738 2.79-2.517 5.966-5.842 8.288-3.317 2.317-8.261 3.847-15.443 3.192-3.322-.302-7.488-1.131-10.974-2.193-1.743-.531-3.286-1.112-4.455-1.7-.584-.293-1.054-.577-1.401-.844-.359-.275-.528-.486-.593-.613-.07-.137-.15-.423-.183-.914a11.458 11.458 0 01.048-1.754c.126-1.379.43-3.07.832-4.868.804-3.591 1.98-7.51 2.817-10.017zm-46.146 0h0l-.004-.01c-3.05-9.435-13.394-14.587-23.14-11.437C11.138 17.1 5.767 27.332 8.817 36.769l.008.026.007.026c.738 2.79 2.517 5.966 5.842 8.288 3.317 2.317 8.261 3.847 15.443 3.192 3.322-.302 7.489-1.131 10.974-2.193 1.743-.531 3.286-1.112 4.455-1.7.585-.293 1.054-.577 1.401-.844.36-.275.528-.486.593-.613.07-.137.15-.423.183-.914a11.47 11.47 0 00-.047-1.754c-.127-1.379-.43-3.07-.833-4.868-.804-3.591-1.98-7.51-2.816-10.017z" />
      <path fill-rule="evenodd"
        d="M111.512 12.44C103.796 14.144 98 21.385 98 30.06c0 9.851 7.473 17.854 16.744 17.999 9.568-3.534 12.36-10.62 12.396-15.81.585-9.586-6.229-17.955-15.628-19.81zm-78.819.515c5.655 1.807 10.348 6.146 12.281 12.125 1.689 5.06 4.743 15.808 3.456 18.326-.86 1.68-5.663 3.465-10.781 4.651C28.422 47.859 21 39.877 21 30.061c0-7.98 4.903-14.745 11.693-17.106z"
        clip-rule="evenodd" />
      <path fill="none" stroke-linecap="round" stroke-width="2"
        d="M7.411 14.906l4.516 3.951m-8.702 3.436l5.795 1.553m117.59-8.94l-4.516 3.951m8.702 3.436l-5.795 1.553" />
    </symbol>
    <symbol id="eyes-cat" viewBox="0 0 134 65">
      <path fill="#fff" stroke-width="2"
        d="M117.849 13.249c6.192 1.618 8.512 4 9 6 .489 2 .75 5-1 12-1.5 6-3.5 14-13.5 17s-16.186 1-19.686-.558c-3.903-1.737-5.899-3.702-6.41-8.897-.513-5.195 2.186-16.385 9.91-22.006 7.723-5.622 13.931-5.566 21.686-3.54zm-102.642 0c-6.192 1.618-8.512 4-9 6-.488 2-.75 5 1 12 1.5 6 3.5 14 13.5 17s16.187 1 19.686-.558c3.903-1.737 5.9-3.702 6.411-8.897.512-5.195-2.187-16.385-9.91-22.006-7.724-5.622-13.932-5.566-21.687-3.54z" />
      <path fill-rule="evenodd"
        d="M120.259 13.981a30.08 30.08 0 00-2.41-.732 56.053 56.053 0 00-1.434-.356 14.796 14.796 0 00-2.066-.145c-8.836 0-16 7.836-16 17.5 0 9.482 6.894 17.202 15.499 17.492 8.708-3.32 10.579-10.804 12.001-16.492 1.718-6.87 1.497-9.887 1.027-11.888-1.725-2.371-4.001-4.241-6.617-5.379zm-89.463-.622C24 15.378 19 22.175 19 30.249c0 9.665 7.163 17.5 16 17.5 4.085 0 7.812-1.675 10.64-4.43.597-1.178.978-2.638 1.164-4.525.512-5.195-2.187-16.384-9.91-22.006-2.126-1.547-4.138-2.665-6.098-3.43z"
        clip-rule="evenodd" />
    </symbol>

  </g>
</svg>