<svg xmlns="http://www.w3.org/2000/svg">
  <symbol id="skin" fill="currentColor" viewBox="0 0 20 20">
    <path fill-rule="evenodd"
      d="M10 18a8 8 0 100-16 8 8 0 000 16zM7 9a1 1 0 100-2 1 1 0 000 2zm7-1a1 1 0 11-2 0 1 1 0 012 0zm-.464 5.535a1 1 0 10-1.415-1.414 3 3 0 01-4.242 0 1 1 0 00-1.415 1.414 5 5 0 007.072 0z"
      clip-rule="evenodd"></path>
  </symbol>
  <symbol id="hair" fill="none" stroke="currentColor" viewBox="0 0 24 24">
    <path stroke-linecap="round" stroke-linejoin="round" stroke-width="2"
      d="M14.121 14.121L19 19m-7-7l7-7m-7 7l-2.879 2.879M12 12L9.121 9.121m0 5.758a3 3 0 10-4.243 4.243 3 3 0 004.243-4.243zm0-5.758a3 3 0 10-4.243-4.243 3 3 0 004.243 4.243z">
    </path>
  </symbol>
  <symbol id="eyes" fill="currentColor" viewBox="0 0 20 20">
      <path d="M10 12a2 2 0 100-4 2 2 0 000 4z"></path>
      <path fill-rule="evenodd"
        d="M.458 10C1.732 5.943 5.522 3 10 3s8.268 2.943 9.542 7c-1.274 4.057-5.064 7-9.542 7S1.732 14.057.458 10zM14 10a4 4 0 11-8 0 4 4 0 018 0z"
        clip-rule="evenodd"></path>
  </symbol>
</svg>